<?xml version="1.0" standalone="no"?><!DOCTYPE svg PUBLIC "-//W3C//DTD SVG 1.1//EN" "http://www.w3.org/Graphics/SVG/1.1/DTD/svg11.dtd"><svg t="1551237667966" class="icon" style="" viewBox="0 0 1024 1024" version="1.1" xmlns="http://www.w3.org/2000/svg" p-id="876" xmlns:xlink="http://www.w3.org/1999/xlink" width="200" height="200"><defs><style type="text/css"></style></defs><path d="M512.03 580.92c-142.52 0-258.46-115.94-258.46-258.46S369.51 64 512.03 64s258.46 115.94 258.46 258.46-115.95 258.46-258.46 258.46z m0-482.46c-123.52 0-224 100.49-224 224s100.48 224 224 224 224-100.49 224-224-100.49-224-224-224z" p-id="877" fill="#bfbfbf"></path><path d="M150.18 960c-9.52 0-17.23-7.71-17.23-17.23 0-218.53 170.05-396.31 379.08-396.31 93.54 0 183.38 35.91 252.96 101.13 6.95 6.51 7.3 17.42 0.79 24.35-6.52 6.95-17.42 7.29-24.35 0.79-63.18-59.2-144.64-91.81-229.4-91.81-190.02 0-344.62 162.33-344.62 361.85 0 9.52-7.72 17.23-17.23 17.23z" p-id="878" fill="#bfbfbf"></path><path d="M873.82 960c-9.52 0-17.23-7.71-17.23-17.23 0-199.52-154.6-361.85-344.62-361.85-84.76 0-166.22 32.61-229.4 91.81-6.93 6.51-17.83 6.18-24.35-0.79-6.51-6.93-6.16-17.84 0.79-24.35 69.58-65.22 159.42-101.13 252.96-101.13 209.02 0 379.08 177.78 379.08 396.31 0 9.52-7.71 17.23-17.23 17.23z" p-id="879" fill="#bfbfbf"></path></svg>