<?xml version="1.0" standalone="no"?><!DOCTYPE svg PUBLIC "-//W3C//DTD SVG 1.1//EN" "http://www.w3.org/Graphics/SVG/1.1/DTD/svg11.dtd"><svg t="1550891888373" class="icon" style="" viewBox="0 0 1024 1024" version="1.1" xmlns="http://www.w3.org/2000/svg" p-id="1109" xmlns:xlink="http://www.w3.org/1999/xlink" width="200" height="200"><defs><style type="text/css"></style></defs><path d="M928.3 920.3H98c-17.7 0-32-14.3-32-32V416.8c0-14.5 9.8-27.2 23.8-30.9 14-3.7 28.8 2.5 36 15.2C195 523 370.8 548.6 506.1 548.6c97.6 0 184.4-14.9 250.8-43 69.9-29.6 117.7-73.3 142-129.8 6-14 21-21.8 35.9-18.7 14.9 3.1 25.5 16.2 25.5 31.3v499.9c0 17.7-14.3 32-32 32z m-798.3-64h766.3v-366c-3 3-6.1 5.9-9.2 8.7-28.9 26.1-64.3 48.1-105.2 65.5-75.3 31.9-168.1 48.1-275.8 48.1-101.1 0-188-13.1-258.2-38.9-46.5-17.1-85.9-39.8-117.9-67.9v350.5z" fill="#0082E4" p-id="1110"></path><path d="M130 416.8H66V260.6c0-17.7 14.3-32 32-32h830.3c17.7 0 32 14.3 32 32v127.8h-64v-95.8H130v124.2zM508.5 674.1c-17.7 0-32-14.3-32-32V509c0-17.7 14.3-32 32-32s32 14.3 32 32v133c0 17.8-14.3 32.1-32 32.1z" fill="#0082E4" p-id="1111"></path><path d="M692.1 292.6H331c-24.3 0-44-19.7-44-44v-105c0-24.3 19.7-44 44-44h361.1c24.3 0 44 19.7 44 44v105c0 24.3-19.7 44-44 44z m-341.1-64h321.1v-65H351v65z" fill="#0082E4" p-id="1112"></path></svg>