<?xml version="1.0" standalone="no"?><!DOCTYPE svg PUBLIC "-//W3C//DTD SVG 1.1//EN" "http://www.w3.org/Graphics/SVG/1.1/DTD/svg11.dtd"><svg t="1551084863977" class="icon" style="" viewBox="0 0 1024 1024" version="1.1" xmlns="http://www.w3.org/2000/svg" p-id="3739" xmlns:xlink="http://www.w3.org/1999/xlink" width="200" height="200"><defs><style type="text/css"></style></defs><path d="M887.413 959.473c-16.764 0-30.404-13.656-30.404-30.42 0-92.336-60.086-194.454-115.887-250.289-11.89-11.84-11.89-31.154-0.05-43.028 5.757-5.757 13.395-8.914 21.523-8.914 8.127 0 15.781 3.157 21.522 8.897 66.563 66.563 133.746 183.089 133.746 293.318-0.03 16.781-13.67 30.436-30.45 30.436z m-751.456 0c-16.764 0-30.42-13.656-30.42-30.42 0-110.244 67.168-226.755 133.73-293.3 39.334-39.317 86.795-69.801 138.344-88.952-78.224-46.987-125.946-130.46-125.946-222.749 0-143.38 116.657-260.02 260.036-260.02 143.364 0 260.02 116.64 260.02 260.02 0 143.397-116.656 260.022-260.02 260.022-3.32 0-6.624-0.082-9.911-0.197-82.492 2.323-160.683 36.03-219.494 94.89-55.835 55.834-115.889 157.95-115.889 250.289-0.048 16.762-13.67 30.417-30.45 30.417z m375.695-436.567c1.374 0 2.699 0.099 4.023 0.295 107.711-2.126 195.208-91.307 195.208-199.132 0-109.838-89.361-199.183-199.198-199.183s-199.197 89.345-199.197 199.165c0 106.763 83.505 194.178 190.104 198.985 2.584-0.08 5.822-0.13 9.06-0.13z" fill="#0082E4" p-id="3740"></path></svg>